<svg width="22" height="20" viewBox="0 0 22 20" fill="none" xmlns="http://www.w3.org/2000/svg">
<path d="M19.3052 5.39931C19.318 5.59619 19.318 5.79306 19.318 5.99175C19.318 12.0459 14.9802 19.0281 7.04843 19.0281V19.0245C4.70536 19.0281 2.41096 18.315 0.438477 16.9705C0.779178 17.014 1.12159 17.0358 1.46485 17.0367C3.4066 17.0385 5.29284 16.3463 6.82045 15.0716C4.97519 15.0344 3.35707 13.7561 2.7918 11.8898C3.43819 12.0223 4.10422 11.9951 4.73866 11.8109C2.7269 11.3791 1.27956 9.50103 1.27956 7.31998C1.27956 7.30002 1.27956 7.28097 1.27956 7.26191C1.87899 7.61665 2.55014 7.81353 3.23667 7.8353C1.34189 6.48984 0.757831 3.81161 1.90204 1.71766C4.09142 4.58006 7.32168 6.32018 10.7893 6.50435C10.4418 4.91302 10.9166 3.24548 12.0369 2.12683C13.7737 0.392155 16.5053 0.481066 18.1379 2.32552C19.1036 2.1232 20.0293 1.74669 20.8763 1.21322C20.5544 2.27381 19.8807 3.17472 18.9807 3.7472C19.8354 3.64014 20.6705 3.39699 21.457 3.02592C20.878 3.9477 20.1488 4.75062 19.3052 5.39931Z" fill="white"/>
</svg>
